# Blender v2.69 (sub 0) OBJ File: 'maison.blend'
# www.blender.org
mtllib maison.mtl
o Cube.001
v -3.896574 5.042185 3.716609
v -3.896574 5.042185 -2.139561
v 0.133616 9.072374 -2.139561
v 0.133616 9.072374 3.716609
v 0.244364 9.183122 3.716609
v 0.244364 9.183122 -2.139561
v 4.385301 5.042184 -2.139561
v 4.385301 5.042184 3.716609
v 4.274553 4.931437 -2.139561
v 4.274553 4.931437 3.716609
v -3.775762 4.921372 3.716609
v -3.775762 4.921372 -2.139561
v 0.365176 9.062309 3.716609
v 0.365176 9.062309 -2.139561
v -2.651207 0.094453 3.716609
v -2.651207 0.094453 -2.139561
v 3.204962 0.094453 -2.139561
v 3.204962 0.094453 3.716609
v -2.651207 5.950623 3.716609
v -2.651207 5.950623 -2.139561
v 3.204962 5.950623 -2.139561
v 3.204962 5.950623 3.716609
v 0.252877 8.805079 -2.139561
v 0.252877 0.094453 -2.139561
v 0.252877 8.805079 3.716609
v 0.252877 0.094453 3.716609
vn 0.000001 0.000000 -1.000000
vn 0.707107 -0.707107 0.000000
vn 0.000000 0.000000 1.000000
vn -0.707105 0.707108 -0.000000
vn 0.707107 0.707107 0.000000
vn -0.707107 0.707107 0.000000
vn -0.707107 -0.707107 -0.000000
vn -1.000000 0.000000 0.000000
vn -0.000000 0.000000 -1.000000
vn 1.000000 0.000000 -0.000000
vn -0.000000 -1.000000 0.000000
vn -0.700987 0.713174 -0.000000
vn 0.695120 0.718894 -0.000000
usemtl Bleu
s off
f 1//1 5//1 13//1 11//1
f 6//2 5//2 4//2 3//2
f 7//3 6//3 3//3 9//3
f 8//4 7//4 9//4 10//4
f 10//5 9//5 3//5 4//5
f 5//1 8//1 10//1 4//1
f 13//6 14//6 12//6 11//6
f 6//3 2//3 12//3 14//3
f 2//5 1//5 11//5 12//5
f 5//7 6//7 14//7 13//7
usemtl Material
f 19//8 20//8 16//8 15//8
f 23//9 21//9 17//9 24//9
f 21//10 22//10 18//10 17//10
f 25//3 19//3 15//3 26//3
f 26//11 24//11 17//11 18//11
f 25//12 23//12 20//12 19//12
f 20//9 23//9 24//9 16//9
f 22//3 25//3 26//3 18//3
f 15//11 16//11 24//11 26//11
f 22//13 21//13 23//13 25//13
