# Blender v2.69 (sub 0) OBJ File: 'rail.blend'
# www.blender.org
mtllib rail.mtl
o rail_Plane
v 2.656122 0.179410 1.346782
v 2.313090 0.179410 1.346782
v 2.313090 0.179410 -1.122526
v 2.656122 0.179410 -1.122526
v 2.656122 0.301800 1.346782
v 2.313090 0.301800 1.346782
v 2.313090 0.301800 -1.122526
v 2.656122 0.301800 -1.122526
v 1.825868 0.179410 1.346782
v 1.482836 0.179410 1.346782
v 1.482836 0.179410 -1.122526
v 1.825868 0.179410 -1.122526
v 1.825868 0.301800 1.346782
v 1.482836 0.301800 1.346782
v 1.482836 0.301800 -1.122526
v 1.825868 0.301800 -1.122526
v 1.058368 0.179410 1.346782
v 0.715337 0.179410 1.346782
v 0.715337 0.179410 -1.122526
v 1.058369 0.179410 -1.122526
v 1.058368 0.301800 1.346782
v 0.715337 0.301800 1.346782
v 0.715337 0.301800 -1.122526
v 1.058369 0.301800 -1.122526
v 0.313140 0.179410 1.346782
v -0.029891 0.179410 1.346782
v -0.029891 0.179410 -1.122526
v 0.313140 0.179410 -1.122526
v 0.313140 0.301800 1.346782
v -0.029892 0.301800 1.346782
v -0.029891 0.301800 -1.122526
v 0.313140 0.301800 -1.122526
v -0.473979 0.179410 1.346782
v -0.817011 0.179410 1.346782
v -0.817011 0.179410 -1.122526
v -0.473979 0.179410 -1.122526
v -0.473979 0.301800 1.346782
v -0.817011 0.301800 1.346782
v -0.817011 0.301800 -1.122526
v -0.473979 0.301800 -1.122526
v -1.289558 0.179410 1.346782
v -1.632590 0.179410 1.346782
v -1.632590 0.179410 -1.122526
v -1.289558 0.179410 -1.122526
v -1.289558 0.301800 1.346782
v -1.632590 0.301800 1.346782
v -1.632590 0.301800 -1.122526
v -1.289558 0.301800 -1.122526
v -2.030578 0.179410 1.346782
v -2.373610 0.179410 1.346782
v -2.373610 0.179410 -1.122526
v -2.030578 0.179410 -1.122526
v -2.030578 0.301800 1.346782
v -2.373610 0.301800 1.346782
v -2.373610 0.301800 -1.122526
v -2.030578 0.301800 -1.122526
v -2.692141 0.303199 -0.716085
v -2.692141 0.303199 -0.484990
v -2.692141 0.534294 -0.625389
v -2.692141 0.534294 -0.575686
v -2.692141 0.515321 -0.655902
v -2.692141 0.515321 -0.545173
v -2.692141 0.466248 -0.567034
v -2.692141 0.466248 -0.634041
v -2.692141 0.492494 -0.655902
v -2.692141 0.492494 -0.545173
v -2.692141 0.327200 -0.484990
v -2.692141 0.327200 -0.716085
v -2.692141 0.349243 -0.634041
v -2.692141 0.349243 -0.567034
v 3.027793 0.303199 -0.716084
v 3.027793 0.303199 -0.484990
v 3.027793 0.534294 -0.625388
v 3.027793 0.534294 -0.575686
v 3.027793 0.515321 -0.655902
v 3.027793 0.515321 -0.545172
v 3.027793 0.466248 -0.567034
v 3.027793 0.466248 -0.634041
v 3.027793 0.492494 -0.655902
v 3.027793 0.492494 -0.545172
v 3.027793 0.327200 -0.484990
v 3.027793 0.327200 -0.716084
v 3.027793 0.349243 -0.634041
v 3.027793 0.349243 -0.567034
v -2.692141 0.298868 0.748403
v -2.692141 0.298868 0.979498
v -2.692141 0.529963 0.839099
v -2.692141 0.529963 0.888801
v -2.692141 0.510990 0.808586
v -2.692141 0.510990 0.919315
v -2.692141 0.461917 0.897454
v -2.692141 0.461917 0.830447
v -2.692141 0.488163 0.808586
v -2.692141 0.488163 0.919315
v -2.692141 0.322870 0.979498
v -2.692141 0.322870 0.748403
v -2.692141 0.344913 0.830447
v -2.692141 0.344913 0.897454
v 3.027793 0.298868 0.748403
v 3.027793 0.298868 0.979498
v 3.027793 0.529963 0.839099
v 3.027793 0.529963 0.888802
v 3.027793 0.510990 0.808586
v 3.027793 0.510990 0.919315
v 3.027793 0.461917 0.897454
v 3.027793 0.461917 0.830447
v 3.027793 0.488163 0.808586
v 3.027793 0.488163 0.919315
v 3.027793 0.322870 0.979498
v 3.027793 0.322870 0.748403
v 3.027793 0.344913 0.830447
v 3.027793 0.344913 0.897454
vn -1.000000 0.000004 0.000000
vn -1.000000 0.000002 0.000000
vn -1.000000 -0.000000 0.000000
vn -1.000000 0.000001 0.000000
vn -1.000000 -0.000003 0.000000
vn -1.000000 -0.000001 0.000000
vn 1.000000 0.000004 0.000000
vn 1.000000 0.000005 0.000000
vn 1.000000 -0.000000 0.000000
vn 1.000000 -0.000007 0.000000
vn 1.000000 0.000003 0.000000
vn 1.000000 -0.000001 0.000000
vn -0.000000 0.965751 -0.259472
vn 0.000000 0.000000 -1.000000
vn -0.000000 0.965751 0.259472
vn -0.000000 0.000000 1.000000
vn -0.000000 0.849220 0.528039
vn 0.000000 -1.000000 0.000000
vn -0.000000 -0.639999 0.768375
vn -0.000000 1.000000 0.000000
vn 0.000000 -0.639999 -0.768375
vn 0.000000 0.849220 -0.528039
vn -1.000000 0.000006 0.000000
vn -1.000000 0.000008 0.000000
vn 1.000000 0.000002 0.000000
vn -0.000000 0.965751 0.259471
vn -0.000000 0.849221 0.528038
vn -0.000000 -0.640000 0.768375
vn 0.000000 -0.640000 -0.768375
vn 0.000000 0.849221 -0.528038
vn -0.000001 0.000000 -1.000000
usemtl Fer
s off
f 62//1 60//1 59//1 61//1
f 66//2 62//2 61//2 65//2
f 70//3 63//3 64//3 69//3
f 63//4 66//4 65//4 64//4
f 58//5 67//5 68//5 57//5
f 67//6 70//6 69//6 68//6
f 76//7 75//7 73//7 74//7
f 80//8 79//8 75//8 76//8
f 84//9 83//9 78//9 77//9
f 77//10 78//10 79//10 80//10
f 72//11 71//11 82//11 81//11
f 81//12 82//12 83//12 84//12
f 68//13 69//13 83//13 82//13
f 65//14 61//14 75//14 79//14
f 57//14 68//14 82//14 71//14
f 70//15 67//15 81//15 84//15
f 62//16 66//16 80//16 76//16
f 60//17 62//17 76//17 74//17
f 58//18 57//18 71//18 72//18
f 63//16 70//16 84//16 77//16
f 66//19 63//19 77//19 80//19
f 59//20 60//20 74//20 73//20
f 69//14 64//14 78//14 83//14
f 64//21 65//21 79//21 78//21
f 61//22 59//22 73//22 75//22
f 67//16 58//16 72//16 81//16
f 90//23 88//23 87//23 89//23
f 94//1 90//1 89//1 93//1
f 98//3 91//3 92//3 97//3
f 91//2 94//2 93//2 92//2
f 86//1 95//1 96//1 85//1
f 95//24 98//24 97//24 96//24
f 104//10 103//10 101//10 102//10
f 108//7 107//7 103//7 104//7
f 112//9 111//9 106//9 105//9
f 105//8 106//8 107//8 108//8
f 100//25 99//25 110//25 109//25
f 109//9 110//9 111//9 112//9
f 96//13 97//13 111//13 110//13
f 93//14 89//14 103//14 107//14
f 85//14 96//14 110//14 99//14
f 98//26 95//26 109//26 112//26
f 90//16 94//16 108//16 104//16
f 88//27 90//27 104//27 102//27
f 86//18 85//18 99//18 100//18
f 91//16 98//16 112//16 105//16
f 94//28 91//28 105//28 108//28
f 87//20 88//20 102//20 101//20
f 97//14 92//14 106//14 111//14
f 92//29 93//29 107//29 106//29
f 89//30 87//30 101//30 103//30
f 95//16 86//16 100//16 109//16
usemtl Bois
f 5//16 6//16 2//16 1//16
f 6//3 7//3 3//3 2//3
f 7//31 8//31 4//31 3//31
f 8//9 5//9 1//9 4//9
f 1//18 2//18 3//18 4//18
f 8//20 7//20 6//20 5//20
f 13//16 14//16 10//16 9//16
f 14//3 15//3 11//3 10//3
f 15//14 16//14 12//14 11//14
f 16//12 13//12 9//12 12//12
f 9//18 10//18 11//18 12//18
f 16//20 15//20 14//20 13//20
f 21//16 22//16 18//16 17//16
f 22//3 23//3 19//3 18//3
f 23//14 24//14 20//14 19//14
f 24//9 21//9 17//9 20//9
f 17//18 18//18 19//18 20//18
f 24//20 23//20 22//20 21//20
f 29//16 30//16 26//16 25//16
f 30//3 31//3 27//3 26//3
f 31//14 32//14 28//14 27//14
f 32//9 29//9 25//9 28//9
f 25//18 26//18 27//18 28//18
f 32//20 31//20 30//20 29//20
f 37//16 38//16 34//16 33//16
f 38//3 39//3 35//3 34//3
f 39//14 40//14 36//14 35//14
f 40//9 37//9 33//9 36//9
f 33//18 34//18 35//18 36//18
f 40//20 39//20 38//20 37//20
f 45//16 46//16 42//16 41//16
f 46//6 47//6 43//6 42//6
f 47//14 48//14 44//14 43//14
f 48//9 45//9 41//9 44//9
f 41//18 42//18 43//18 44//18
f 48//20 47//20 46//20 45//20
f 53//16 54//16 50//16 49//16
f 54//3 55//3 51//3 50//3
f 55//14 56//14 52//14 51//14
f 56//9 53//9 49//9 52//9
f 49//18 50//18 51//18 52//18
f 56//20 55//20 54//20 53//20
